<svg width="111" height="27" viewBox="0 0 111 27" fill="none" xmlns="http://www.w3.org/2000/svg">
<path d="M19.448 26.64C19 26.64 18.776 26.4267 18.776 26V1.2C18.776 0.751998 19 0.527998 19.448 0.527998H24.024C24.472 0.527998 24.696 0.751998 24.696 1.2V10.032H26.36C26.7867 10.032 27 10.256 27 10.704V14.96C27 15.3867 26.7867 15.6 26.36 15.6H24.696V26C24.696 26.4267 24.472 26.64 24.024 26.64H19.448ZM0.824 5.904C0.397333 5.904 0.184 5.69067 0.184 5.264V1.84C0.184 1.392 0.397333 1.168 0.824 1.168H15.864C16.312 1.168 16.536 1.38133 16.536 1.808V25.52C16.536 25.9467 16.312 26.16 15.864 26.16H1.176C0.728 26.16 0.504 25.9467 0.504 25.52V7.504C0.504 7.07733 0.728 6.864 1.176 6.864H5.72C6.168 6.864 6.392 7.07733 6.392 7.504V21.424H10.648V5.904H0.824ZM28.466 7.44C28.466 7.01333 28.69 6.8 29.138 6.8H35.058C35.1007 6.48 35.1327 6.14933 35.154 5.808C35.1967 5.46667 35.218 5.11467 35.218 4.752H29.394C28.9673 4.752 28.754 4.53867 28.754 4.112V1.648C28.754 1.22133 28.9673 1.008 29.394 1.008H39.73C40.178 1.008 40.402 1.232 40.402 1.68V4.304C40.402 4.66667 40.3913 5.02933 40.37 5.392C40.3487 5.73333 40.3167 6.07467 40.274 6.416H42.194V1.296C42.194 0.847999 42.4073 0.623999 42.834 0.623999H46.514C46.9407 0.623999 47.154 0.847999 47.154 1.296V15.44C47.154 15.8667 46.9407 16.08 46.514 16.08H42.834C42.4073 16.08 42.194 15.8667 42.194 15.44V11.632H39.954C39.5487 11.632 39.346 11.4187 39.346 10.992V10.064C38.4927 12.1333 37.234 13.776 35.57 14.992C33.906 16.1867 32.0073 16.8907 29.874 17.104C29.6607 17.1253 29.5007 17.0827 29.394 16.976C29.2873 16.848 29.234 16.688 29.234 16.496V13.904C29.234 13.5413 29.4473 13.328 29.874 13.264C30.7273 13.136 31.4953 12.8053 32.178 12.272C32.882 11.7387 33.4687 11.0453 33.938 10.192L29.138 10.384C28.69 10.384 28.466 10.1707 28.466 9.744V7.44ZM48.722 1.2C48.722 0.751998 48.9353 0.527998 49.362 0.527998H53.074C53.5007 0.527998 53.714 0.751998 53.714 1.2V17.04C53.714 17.4667 53.5007 17.68 53.074 17.68H49.362C48.9353 17.68 48.722 17.4667 48.722 17.04V1.2ZM38.29 26.16C38.0553 26.3733 37.746 26.48 37.362 26.48H36.594H36.466H29.618C29.17 26.48 28.946 26.2667 28.946 25.84V22.32C28.946 21.8933 29.17 21.68 29.618 21.68H35.186L38.802 17.936C39.0367 17.7227 39.346 17.616 39.73 17.616H45.426C45.682 17.616 45.842 17.712 45.906 17.904C45.97 18.096 45.906 18.2773 45.714 18.448L38.29 26.16ZM42.45 24.208C42.13 23.9307 42.1193 23.6213 42.418 23.28L45.426 20.144C45.7247 19.8453 46.034 19.8453 46.354 20.144L48.114 21.68H53.522C53.97 21.68 54.194 21.8933 54.194 22.32V25.84C54.194 26.2667 53.97 26.48 53.522 26.48H52.466H52.402H45.906C45.714 26.48 45.5433 26.448 45.394 26.384C45.266 26.3413 45.1273 26.2667 44.978 26.16L42.45 24.208ZM58.572 26.48C58.1453 26.48 57.932 26.2667 57.932 25.84V19.792C57.932 19.3653 58.1453 19.152 58.572 19.152H75.66V17.776H58.572C58.1453 17.776 57.932 17.552 57.932 17.104V15.184C57.932 14.7573 58.1453 14.544 58.572 14.544H81.324C81.7507 14.544 81.964 14.7573 81.964 15.184V21.072C81.964 21.52 81.7507 21.744 81.324 21.744H64.268V23.184H81.612C82.0387 23.184 82.252 23.3973 82.252 23.824V25.84C82.252 26.2667 82.0387 26.48 81.612 26.48H58.572ZM70.444 7.792H68.268C67.8627 7.792 67.66 7.57867 67.66 7.152V3.888C67.66 3.44 67.8627 3.216 68.268 3.216H70.444V1.296C70.444 0.847999 70.6573 0.623999 71.084 0.623999H74.764C75.1907 0.623999 75.404 0.847999 75.404 1.296V12.144C75.404 12.5707 75.1907 12.784 74.764 12.784H71.084C70.6573 12.784 70.444 12.5707 70.444 12.144V7.792ZM62.06 12.24C61.932 12.5813 61.6653 12.752 61.26 12.752H57.196C56.94 12.752 56.7693 12.688 56.684 12.56C56.5987 12.4107 56.5987 12.2187 56.684 11.984L60.3 1.168C60.3853 0.826665 60.62 0.655998 61.004 0.655998H65.324C65.8147 0.655998 65.9747 0.911999 65.804 1.424L62.06 12.24ZM76.972 1.2C76.972 0.751998 77.1853 0.527998 77.612 0.527998H81.324C81.7507 0.527998 81.964 0.751998 81.964 1.2V12.304C81.964 12.7307 81.7507 12.944 81.324 12.944H77.612C77.1853 12.944 76.972 12.7307 76.972 12.304V1.2ZM64.844 12.592C64.4813 12.592 64.236 12.4213 64.108 12.08L63.756 11.056C63.6707 10.8213 63.6813 10.544 63.788 10.224L65.612 4.944C65.7187 4.66667 65.8573 4.528 66.028 4.528C66.22 4.528 66.3693 4.66667 66.476 4.944L69.228 11.856C69.4413 12.3467 69.2813 12.592 68.748 12.592H64.844ZM104.806 26.64C104.358 26.64 104.134 26.4267 104.134 26V15.856H101.702C101.297 15.856 101.094 15.6427 101.094 15.216V10.96C101.094 10.512 101.297 10.288 101.702 10.288H104.134V1.2C104.134 0.751998 104.358 0.527998 104.806 0.527998H109.382C109.83 0.527998 110.054 0.751998 110.054 1.2V26C110.054 26.4267 109.83 26.64 109.382 26.64H104.806ZM85.254 11.92C85.254 11.4933 85.478 11.28 85.926 11.28H93.99V5.744H85.862C85.414 5.744 85.19 5.53067 85.19 5.104V1.808C85.19 1.38133 85.414 1.168 85.862 1.168H99.238C99.686 1.168 99.91 1.38133 99.91 1.808V15.056C99.91 15.4827 99.686 15.696 99.238 15.696H91.142V21.584H101.542C101.99 21.584 102.214 21.7973 102.214 22.224V25.52C102.214 25.9467 101.99 26.16 101.542 26.16H85.926C85.478 26.16 85.254 25.9467 85.254 25.52V11.92Z" fill="black"/>
</svg>
